<?xml version="1.0" encoding="UTF-8" standalone="no" ?>
<!DOCTYPE svg PUBLIC "-//W3C//DTD SVG 1.1//EN" "http://www.w3.org/Graphics/SVG/1.1/DTD/svg11.dtd">
<svg xmlns="http://www.w3.org/2000/svg" xmlns:xlink="http://www.w3.org/1999/xlink" version="1.1" width="128" height="128" viewBox="0 0 64 64" xml:space="preserve">
<desc>Created with Fabric.js 5.3.0</desc>
<defs>
</defs>
<g transform="matrix(9.1 0 0 9.1 32 32)" id="OSMp-9o8jjTv5T6OhyRLu"  >
<path style="stroke: rgb(98,246,242); stroke-width: 0; stroke-dasharray: none; stroke-linecap: butt; stroke-dashoffset: 0; stroke-linejoin: miter; stroke-miterlimit: 4; fill: rgb(121,160,234); fill-rule: nonzero; opacity: 1;"  transform=" translate(-0.000005, -0.000005)" d="M -3.48584 -2.00692 C -3.48584 -2.8237 -2.82371 -3.48584 -2.00692 -3.48584 L 2.0069299999999997 -3.48584 L 2.0069299999999997 -3.48584 C 2.8237099999999997 -3.48584 3.4858499999999997 -2.82371 3.4858499999999997 -2.00692 L 3.4858499999999997 2.0069299999999997 L 3.4858499999999997 2.0069299999999997 C 3.4858499999999997 2.8237099999999997 2.82372 3.4858499999999997 2.0069299999999997 3.4858499999999997 L -2.00692 3.4858499999999997 L -2.00692 3.4858499999999997 C -2.8237 3.4858499999999997 -3.48584 2.82372 -3.48584 2.0069299999999997 z" stroke-linecap="round" />
</g>
<g transform="matrix(0.1565036161 0.0332658705 -0.4802760058 2.2595209577 24.6100217865 51.6949891068)" id="pWoDNzbvlT2YQoYVwitbe"  >
<path style="stroke: rgb(181,192,47); stroke-width: 0; stroke-dasharray: none; stroke-linecap: butt; stroke-dashoffset: 0; stroke-linejoin: miter; stroke-miterlimit: 4; fill: rgb(234,178,121); fill-rule: nonzero; opacity: 1;"  transform=" translate(-0.000005, -0.000005)" d="M -3.48584 -3.3834 C -3.48584 -3.4399699999999998 -2.82371 -3.48584 -2.00692 -3.48584 L 2.0069299999999997 -3.48584 L 2.0069299999999997 -3.48584 C 2.8237099999999997 -3.48584 3.4858499999999997 -3.4399800000000003 3.4858499999999997 -3.3834 L 3.4858499999999997 3.3834100000000005 L 3.4858499999999997 3.3834100000000005 C 3.4858499999999997 3.4399800000000003 2.82372 3.4858500000000006 2.0069299999999997 3.4858500000000006 L -2.00692 3.4858500000000006 L -2.00692 3.4858500000000006 C -2.8237 3.4858500000000006 -3.48584 3.4399900000000008 -3.48584 3.3834100000000005 z" stroke-linecap="round" />
</g>
<g transform="matrix(-0.1565036161 0.0332658705 0.4802760058 2.2595209577 39.3507625272 51.6949748455)" id="2O1FaZi05CubEAOatxbzB"  >
<path style="stroke: rgb(181,192,47); stroke-width: 0; stroke-dasharray: none; stroke-linecap: butt; stroke-dashoffset: 0; stroke-linejoin: miter; stroke-miterlimit: 4; fill: rgb(234,178,121); fill-rule: nonzero; opacity: 1;"  transform=" translate(-0.000005, -0.000005)" d="M -3.48584 -3.3834 C -3.48584 -3.4399699999999998 -2.82371 -3.48584 -2.00692 -3.48584 L 2.0069299999999997 -3.48584 L 2.0069299999999997 -3.48584 C 2.8237099999999997 -3.48584 3.4858499999999997 -3.4399800000000003 3.4858499999999997 -3.3834 L 3.4858499999999997 3.3834100000000005 L 3.4858499999999997 3.3834100000000005 C 3.4858499999999997 3.4399800000000003 2.82372 3.4858500000000006 2.0069299999999997 3.4858500000000006 L -2.00692 3.4858500000000006 L -2.00692 3.4858500000000006 C -2.8237 3.4858500000000006 -3.48584 3.4399900000000008 -3.48584 3.3834100000000005 z" stroke-linecap="round" />
</g>
<g transform="matrix(4.44796875 0 0 4.44796875 32 39)" id="JdHhN8LbvOPL1Y94jtV7n"  >
<path style="stroke: rgb(235,147,61); stroke-width: 0; stroke-dasharray: none; stroke-linecap: butt; stroke-dashoffset: 0; stroke-linejoin: miter; stroke-miterlimit: 4; fill: rgb(234,232,121); fill-rule: nonzero; opacity: 1;"  transform=" translate(0, 0)" d="M 0 -3.48584 C 1.92418 -3.48584 3.48584 -1.92418 3.48584 0 C 3.48584 1.92418 1.92418 3.48584 0 3.48584 C -1.92418 3.48584 -3.48584 1.92418 -3.48584 0 C -3.48584 -1.92418 -1.92418 -3.48584 0 -3.48584 z" stroke-linecap="round" />
</g>
<g transform="matrix(1.881015745 0 0 1.881015745 32 17.9869281046)" id="vNxMyVgUcRcLA2E9LYA7_"  >
<path style="stroke: rgb(235,147,61); stroke-width: 0; stroke-dasharray: none; stroke-linecap: butt; stroke-dashoffset: 0; stroke-linejoin: miter; stroke-miterlimit: 4; fill: rgb(234,232,121); fill-rule: nonzero; opacity: 1;"  transform=" translate(0, 0)" d="M 0 -3.48584 C 1.92418 -3.48584 3.48584 -1.92418 3.48584 0 C 3.48584 1.92418 1.92418 3.48584 0 3.48584 C -1.92418 3.48584 -3.48584 1.92418 -3.48584 0 C -3.48584 -1.92418 -1.92418 -3.48584 0 -3.48584 z" stroke-linecap="round" />
</g>
<g transform="matrix(-0.0036736472 0.0525356032 -0.0841432223 -0.0058838673 40.6876306825 19.2670366766)" id="64N7FiW_IouytZZOHX9Sl"  >
<path style="stroke: none; stroke-width: 1; stroke-dasharray: none; stroke-linecap: butt; stroke-dashoffset: 0; stroke-linejoin: miter; stroke-miterlimit: 4; fill: rgb(234,178,121); fill-rule: nonzero; opacity: 1;"  transform=" translate(-40, -40)" d="M 60 40 L 80 80 L 40 80 L 0 80 L 20 40 L 40 0 L 60 40 z" stroke-linecap="round" />
</g>
<g transform="matrix(-0.0871459695 0 0 0.0871459695 15.0588235294 39)" id="zsIbeNU51U8Dg3kRntJjy"  >
<path style="stroke: none; stroke-width: 1; stroke-dasharray: none; stroke-linecap: butt; stroke-dashoffset: 0; stroke-linejoin: miter; stroke-miterlimit: 4; fill: rgb(234,232,121); fill-rule: nonzero; opacity: 1;"  transform=" translate(-40, -40)" d="M 0 0 L 80 80 L 0 80 L 0 0 z" stroke-linecap="round" />
</g>
<g transform="matrix(0.0871459695 0 0 0.0871459695 49.4596949891 39)" id="BzgDLI3BVlCPT46oAe6wK"  >
<path style="stroke: none; stroke-width: 1; stroke-dasharray: none; stroke-linecap: butt; stroke-dashoffset: 0; stroke-linejoin: miter; stroke-miterlimit: 4; fill: rgb(234,232,121); fill-rule: nonzero; opacity: 1;"  transform=" translate(-40, -40)" d="M 0 0 L 80 80 L 0 80 L 0 0 z" stroke-linecap="round" />
</g>
<g transform="matrix(0.485 0 0 0.485 33.6906318083 15.9493831907)" id="b4yT2V92LejCR7uHUvnWA"  >
<path style="stroke: rgb(28,61,182); stroke-width: 0; stroke-dasharray: none; stroke-linecap: butt; stroke-dashoffset: 0; stroke-linejoin: miter; stroke-miterlimit: 4; fill: rgb(0,0,0); fill-rule: nonzero; opacity: 1;"  transform=" translate(0, 0)" d="M 0 -3.48584 C 1.92418 -3.48584 3.48584 -1.92418 3.48584 0 C 3.48584 1.92418 1.92418 3.48584 0 3.48584 C -1.92418 3.48584 -3.48584 1.92418 -3.48584 0 C -3.48584 -1.92418 -1.92418 -3.48584 0 -3.48584 z" stroke-linecap="round" />
</g>
<g transform="matrix(0.19 0 0 0.19 34.3529411765 16.2387387526)" id="hkIvv89bv4CUZuSi1aye3"  >
<path style="stroke: rgb(25,232,249); stroke-width: 0; stroke-dasharray: none; stroke-linecap: butt; stroke-dashoffset: 0; stroke-linejoin: miter; stroke-miterlimit: 4; fill: rgb(255,255,255); fill-rule: nonzero; opacity: 1;"  transform=" translate(0, 0)" d="M 0 -3.48584 C 1.92418 -3.48584 3.48584 -1.92418 3.48584 0 C 3.48584 1.92418 1.92418 3.48584 0 3.48584 C -1.92418 3.48584 -3.48584 1.92418 -3.48584 0 C -3.48584 -1.92418 -1.92418 -3.48584 0 -3.48584 z" stroke-linecap="round" />
</g>
</svg>